inDegrees=no
num_controls=7
num_derivatives=13
num_iterations=106
num_multipliers=7
num_parameters=0
num_slacks=7
num_states=26
objective=5.354250
objective_accelerations=0.714358
objective_balance=0.024332
objective_effort=0.177084
objective_height=4.318486
objective_ligament=0.119991
solver_duration=1287.104810
status=Solve_Succeeded
success=true
DataType=double
version=3
OpenSimVersion=4.4-2022-07-23-0e9fedc
endheader
time	/jointset/ground_pelvis/pelvis_tilt/value	/jointset/ground_pelvis/pelvis_tx/value	/jointset/ground_pelvis/pelvis_ty/value	/jointset/hip_l/hip_flexion_l/value	/jointset/hip_l/hip_adduction_l/value	/jointset/hip_l/hip_rotation_l/value	/jointset/back/lumbar_extension/value	/jointset/patellofemoral_l/patellar_flexion_l/value	/jointset/knee_l/knee_flexion_l/value	/jointset/knee_l/knee_adduction_l/value	/jointset/knee_l/knee_rotation_l/value	/jointset/ankle_l/ankle_angle_l/value	/jointset/subtalar_l/subtalar_angle_l/value	/jointset/ground_pelvis/pelvis_tilt/speed	/jointset/ground_pelvis/pelvis_tx/speed	/jointset/ground_pelvis/pelvis_ty/speed	/jointset/hip_l/hip_flexion_l/speed	/jointset/hip_l/hip_adduction_l/speed	/jointset/hip_l/hip_rotation_l/speed	/jointset/back/lumbar_extension/speed	/jointset/patellofemoral_l/patellar_flexion_l/speed	/jointset/knee_l/knee_flexion_l/speed	/jointset/knee_l/knee_adduction_l/speed	/jointset/knee_l/knee_rotation_l/speed	/jointset/ankle_l/ankle_angle_l/speed	/jointset/subtalar_l/subtalar_angle_l/speed	/forceset/tau_hip_flexion_l	/forceset/tau_hip_adduction_l	/forceset/tau_hip_rotation_l	/forceset/tau_knee_flexion_l	/forceset/tau_ankle_angle_l	/forceset/tau_subtalar_angle_l	/forceset/tau_lumbar_extension	lambda_cid13_p0	lambda_cid13_p1	lambda_cid13_p2	lambda_cid13_p3	lambda_cid13_p4	lambda_cid13_p5	lambda_cid14_p0	/jointset/ground_pelvis/pelvis_tilt/accel	/jointset/ground_pelvis/pelvis_tx/accel	/jointset/ground_pelvis/pelvis_ty/accel	/jointset/hip_l/hip_flexion_l/accel	/jointset/hip_l/hip_adduction_l/accel	/jointset/hip_l/hip_rotation_l/accel	/jointset/back/lumbar_extension/accel	/jointset/patellofemoral_l/patellar_flexion_l/accel	/jointset/knee_l/knee_flexion_l/accel	/jointset/knee_l/knee_adduction_l/accel	/jointset/knee_l/knee_rotation_l/accel	/jointset/ankle_l/ankle_angle_l/accel	/jointset/subtalar_l/subtalar_angle_l/accel	gamma_cid13_p0	gamma_cid13_p1	gamma_cid13_p2	gamma_cid13_p3	gamma_cid13_p4	gamma_cid13_p5	gamma_cid14_p0
0	0.04623179974267253	0.1088321918090951	0.9028454209674931	0.1266917050730164	-0.3701962252472271	-0.236519639664782	-0.2144974744115991	0.2051547269256851	0.2051547269256735	-0.1740791636025658	-0.1711765824971714	0.09024399430361882	0.07900071748514055	0	0	0	0	0	0	0	0	0	0	0	0	0	0.1260934445995804	-0.09596232404489186	-0.01494678316501001	-0.2719932874090063	0.2131152974527622	-0.06575972569813147	-0.05521695931379799	38.95637080806775	22.81101946349948	-5.142819399508042	-29.61615270238583	-440.6313083899549	-75.20435460260354	-26.62843206050128	-3.595184160284691	-0.878762553158427	-0.8358327113065687	11.41866110799579	0.01437795120557429	3.440465006585934	-3.6087038157802	10.42095005201547	10.42095005201609	2.691167541305476	-0.5452784646694653	3.725290236676354	1.091629506793917	2.457459487645652e-08	7.354623962184734e-07	-2.065262242418889e-07	5.903140460253127e-08	3.086462182234007e-08	3.71545466326199e-07	1.083855548095732e-07
0.01	0.04605953935594616	0.1087889104592225	0.9028048498043969	0.1272468260672223	-0.370194624391197	-0.236339392714215	-0.2146817864970534	0.2056626433021097	0.2056626433021287	-0.1739468295610628	-0.1711907669099842	0.09042637612775689	0.07905498680566027	-0.03433802743117053	-0.008616775015682874	-0.008093907808290661	0.1105467729103792	0.0002943743999592313	0.03589739439501604	-0.03658648283705765	0.1010952373560552	0.1010952373560474	0.0262731374976595	-0.002800214750260759	0.03628509400106712	0.01077252127182158	0.1231212543864127	-0.1034124404150071	-0.01417290830767691	-0.2681266347508617	0.2052471653027169	-0.0567315261564277	-0.05286235687746568	36.91874536905027	18.99190841396468	-4.242747539501326	-28.52869596094489	-441.242303909443	-82.82141407379106	-26.62762199438053	-3.33600241881518	-0.8471989255833786	-0.793114920993392	10.80107305939654	0.03302007900296245	3.641629680655615	-3.642230379462723	9.880583210793107	9.880583210791443	2.566435884960854	-0.141943212769864	3.551450460582572	1.057770609063565	2.243582922961505e-08	1.007232179502026e-06	-1.940307140823755e-07	9.364037513681436e-08	-1.554217561727354e-07	4.023931001204797e-07	1.489379648674343e-07
0.02	0.045547320618047	0.108660648569231	0.9026839505421342	0.1288930923258935	-0.370190869212224	-0.235804721214749	-0.2152236853832421	0.2071668665787847	0.207166866578772	-0.173557554338362	-0.17123186351677	0.0909658751876584	0.07921452277323492	-0.06799167023353582	-0.01699610802376193	-0.01606561983319136	0.2182290528942566	0.0004308645844198918	0.07088490977788613	-0.07151736014587867	0.1992613800477956	0.1992613800477693	0.05138823623393849	-0.00538243880313497	0.0714234471525607	0.02105332941115271	0.1201490641730786	-0.1108625567851238	-0.013399033450622	-0.2642599820928985	0.1973790331525909	-0.04770332661474384	-0.05050775444117372	34.92923879637507	15.17925601455447	-3.360708805132219	-27.49640800418164	-440.9970516459381	-90.24466066541102	-26.62498968529786	-3.458307234523513	-0.8312741516376342	-0.8113935546285719	10.8457625226953	-0.01719889189412503	3.258489204156846	-3.277582710132835	9.835131119152503	9.83513111915097	2.459559789029373	-0.5016803251921561	3.495942066761713	0.9932868802958154	2.029706358277358e-08	1.27900196278558e-06	-1.81535203922862e-07	1.282493456710974e-07	-3.417081341678108e-07	4.332407339147603e-07	1.894903749252953e-07
0.03	0.04470194139373872	0.1084494117011242	0.9024836853025712	0.1316028320325585	-0.3701863009105539	-0.2349265877125893	-0.2161064166305437	0.2096390714050448	0.209639071405023	-0.1729223863401981	-0.1712994550580881	0.09185088579366206	0.0794746865500633	-0.1009313585346961	-0.02524716069131783	-0.02398564961112161	0.3232633909241617	0.0004812147289155763	0.1046094129296692	-0.1047783748798662	0.2947126251386179	0.2947126251385729	0.07547723428732114	-0.008054926132557533	0.1053578807129952	0.03091865068446852	0.1157020372357389	-0.1053471102157576	-0.01224604260476854	-0.2582195149614497	0.1891843086777862	-0.04915346642580307	-0.04726249082019517	32.20689190224556	16.08546561922498	-3.276449590612642	-25.47617204153661	-440.8396792503123	-87.42223978102437	-26.62029203122086	-3.188864741763658	-0.8213792985940062	-0.7821100133954322	10.26395056508466	0.01575108842555703	3.4096382757673	-3.312783689710507	9.330039132265888	9.330039132263845	2.35854666389868	-0.13794975650197	3.309117860151523	0.9738576711660881	1.905048609946254e-08	1.39834166356787e-06	-1.838162881847992e-07	1.458561152558581e-07	-4.636517476584711e-07	4.490164535465535e-07	2.102832593259292e-07
